<svg id="OBJECTS" xmlns="http://www.w3.org/2000/svg" viewBox="0 0 663.25 800.65"><defs><style>.cls-1{fill:#0c0c0c;}</style></defs><path class="cls-1" d="M1678.57,825.59V971.71l-102,102V897.83A229.85,229.85,0,0,0,1678.57,825.59Z" transform="translate(-1168.37 -349.68)"/><path class="cls-1" d="M1525.51,681.3v443.46L1500,1150.32l-25.51-25.5V681.3a25.51,25.51,0,0,1,51,0Z" transform="translate(-1168.37 -349.68)"/><path class="cls-1" d="M1678.57,537.07V681.3a178.57,178.57,0,0,1-153.06,176.78V753.44a76.47,76.47,0,0,0,51-72.14V433.19l81.89,81.94,2,1.94,3.87,3.88,1.89,1.94Q1672.68,529.7,1678.57,537.07Z" transform="translate(-1168.37 -349.68)"/><path class="cls-1" d="M1474.49,753.44V858.08A178.57,178.57,0,0,1,1321.43,681.3V537A224.62,224.62,0,0,1,1337.66,519l85.81-85.82V681.3A76.4,76.4,0,0,0,1474.49,753.44Z" transform="translate(-1168.37 -349.68)"/><path class="cls-1" d="M1831.63,681.3c0,2.3,0,4.59-.1,6.89a330.6,330.6,0,0,1-97,227.6c-1.64,1.63-3.22,3.21-4.9,4.74v-77.9a279.19,279.19,0,0,0,51-161.33,282.08,282.08,0,0,0-4.14-48.16,280,280,0,0,0-228.31-228.31c-7.45-1.33-15-2.3-22.65-3-8.37-.77-16.89-1.18-25.51-1.18s-17.14.41-25.51,1.18c-7.65.66-15.25,1.68-22.7,3a289,289,0,0,0-28.32,6.43,280.66,280.66,0,0,0-153.06,431.37v77.9a330.21,330.21,0,0,1-101.93-232.39c-.11-2.3-.11-4.54-.11-6.84a331.59,331.59,0,0,1,255.1-322.7,322.51,322.51,0,0,1,51-8c6.17-.45,12.35-.76,18.62-.86,2.3-.1,4.59-.1,6.89-.1s4.54,0,6.84.1c6.27.1,12.5.41,18.67.86a324.32,324.32,0,0,1,51,8,331.89,331.89,0,0,1,255.1,322.7Z" transform="translate(-1168.37 -349.68)"/><path class="cls-1" d="M1423.47,897.83v176l-102-102V825.64A229.74,229.74,0,0,0,1423.47,897.83Z" transform="translate(-1168.37 -349.68)"/></svg>